<mxfile host="app.diagrams.net" agent="Mozilla/5.0 (Windows NT 10.0; Win64; x64) AppleWebKit/537.36 (KHTML, like Gecko) Chrome/137.0.0.0 Safari/537.36 Edg/137.0.0.0" version="26.0.16">
  <diagram name="Page-1" id="YKyvcJ_oWGMwuUhJ4wL3">
    <mxGraphModel dx="1379" dy="783" grid="1" gridSize="10" guides="1" tooltips="1" connect="1" arrows="1" fold="1" page="1" pageScale="1" pageWidth="850" pageHeight="1100" math="1" shadow="0">
      <root>
        <mxCell id="0" />
        <mxCell id="1" parent="0" />
        <mxCell id="zFXgyLeu_rbnk6_fEp6p-11" value="" style="rounded=1;whiteSpace=wrap;html=1;fillColor=#fff2cc;strokeColor=#d6b656;arcSize=5;" vertex="1" parent="1">
          <mxGeometry x="30" y="130" width="540" height="420" as="geometry" />
        </mxCell>
        <mxCell id="zFXgyLeu_rbnk6_fEp6p-6" value="&lt;span&gt;Trajectory&lt;br&gt;Generator&lt;/span&gt;" style="rounded=1;whiteSpace=wrap;html=1;fillColor=#f5f5f5;fontColor=#333333;strokeColor=#666666;fontStyle=1" vertex="1" parent="1">
          <mxGeometry x="65" y="15" width="80" height="50" as="geometry" />
        </mxCell>
        <mxCell id="zFXgyLeu_rbnk6_fEp6p-14" style="edgeStyle=orthogonalEdgeStyle;rounded=0;orthogonalLoop=1;jettySize=auto;html=1;entryX=0.5;entryY=0;entryDx=0;entryDy=0;exitX=0.5;exitY=1;exitDx=0;exitDy=0;" edge="1" parent="1" source="zFXgyLeu_rbnk6_fEp6p-10" target="zFXgyLeu_rbnk6_fEp6p-48">
          <mxGeometry relative="1" as="geometry">
            <mxPoint x="320" y="110" as="targetPoint" />
            <Array as="points">
              <mxPoint x="215" y="90" />
              <mxPoint x="280" y="90" />
            </Array>
          </mxGeometry>
        </mxCell>
        <mxCell id="zFXgyLeu_rbnk6_fEp6p-82" value="" style="edgeStyle=orthogonalEdgeStyle;rounded=0;orthogonalLoop=1;jettySize=auto;html=1;entryX=1;entryY=0.5;entryDx=0;entryDy=0;" edge="1" parent="1" source="zFXgyLeu_rbnk6_fEp6p-10" target="zFXgyLeu_rbnk6_fEp6p-6">
          <mxGeometry relative="1" as="geometry" />
        </mxCell>
        <mxCell id="zFXgyLeu_rbnk6_fEp6p-10" value="&lt;b&gt;OpenSim&lt;br&gt;Biceps Model&lt;/b&gt;" style="rounded=1;whiteSpace=wrap;html=1;fillColor=#e1d5e7;strokeColor=#9673a6;" vertex="1" parent="1">
          <mxGeometry x="170" y="15" width="100" height="50" as="geometry" />
        </mxCell>
        <mxCell id="zFXgyLeu_rbnk6_fEp6p-15" value="&lt;span&gt;&lt;b&gt;&lt;font style=&quot;font-size: 16px;&quot;&gt;&lt;span style=&quot;color: light-dark(rgb(0, 0, 0), rgb(237, 237, 237)); text-align: center;&quot;&gt;Admittance Controller&lt;/span&gt;&lt;/font&gt;&lt;/b&gt;&lt;/span&gt;" style="text;whiteSpace=wrap;html=1;rotation=0;" vertex="1" parent="1">
          <mxGeometry x="40" y="512.5" width="175" height="30" as="geometry" />
        </mxCell>
        <mxCell id="zFXgyLeu_rbnk6_fEp6p-17" value="&lt;span style=&quot;color: rgb(0, 0, 0); font-family: Helvetica; font-size: 11px; font-style: normal; font-variant-ligatures: normal; font-variant-caps: normal; font-weight: 400; letter-spacing: normal; orphans: 2; text-align: center; text-indent: 0px; text-transform: none; widows: 2; word-spacing: 0px; -webkit-text-stroke-width: 0px; white-space: nowrap; background-color: rgb(255, 255, 255); text-decoration-thickness: initial; text-decoration-style: initial; text-decoration-color: initial; display: inline !important; float: none;&quot;&gt;$$x_{des},\dot{x}_{des}$$&lt;/span&gt;" style="text;whiteSpace=wrap;html=1;" vertex="1" parent="1">
          <mxGeometry x="104.63" y="54" width="190" height="40" as="geometry" />
        </mxCell>
        <mxCell id="zFXgyLeu_rbnk6_fEp6p-73" style="edgeStyle=orthogonalEdgeStyle;rounded=0;orthogonalLoop=1;jettySize=auto;html=1;entryX=0.5;entryY=1;entryDx=0;entryDy=0;" edge="1" parent="1" source="zFXgyLeu_rbnk6_fEp6p-20" target="zFXgyLeu_rbnk6_fEp6p-57">
          <mxGeometry relative="1" as="geometry" />
        </mxCell>
        <mxCell id="zFXgyLeu_rbnk6_fEp6p-20" value="&lt;div&gt;&lt;br&gt;&lt;/div&gt;Torque&lt;br&gt;$$\tau=K_pq_{\text{err}}+K_d\dot{q}_{\text{err}}$$" style="rounded=1;whiteSpace=wrap;html=1;fontStyle=1" vertex="1" parent="1">
          <mxGeometry x="370" y="160" width="157.5" height="60" as="geometry" />
        </mxCell>
        <mxCell id="zFXgyLeu_rbnk6_fEp6p-35" value="" style="edgeStyle=orthogonalEdgeStyle;rounded=0;orthogonalLoop=1;jettySize=auto;html=1;" edge="1" parent="1" source="zFXgyLeu_rbnk6_fEp6p-23" target="zFXgyLeu_rbnk6_fEp6p-20">
          <mxGeometry relative="1" as="geometry" />
        </mxCell>
        <mxCell id="zFXgyLeu_rbnk6_fEp6p-23" value="&lt;div&gt;&lt;span style=&quot;background-color: transparent; color: light-dark(rgb(0, 0, 0), rgb(255, 255, 255));&quot;&gt;Joint Errors&lt;/span&gt;&lt;/div&gt;$$q_{\text{err}}=q_{\text{des}}-q$$&lt;div&gt;$$\dot{q}_{\text{err}}=\dot{q}_{\text{des}}-\dot{q}$$&lt;/div&gt;" style="rounded=1;whiteSpace=wrap;html=1;" vertex="1" parent="1">
          <mxGeometry x="391.88" y="260" width="113.75" height="95" as="geometry" />
        </mxCell>
        <mxCell id="zFXgyLeu_rbnk6_fEp6p-34" value="" style="edgeStyle=orthogonalEdgeStyle;rounded=0;orthogonalLoop=1;jettySize=auto;html=1;entryX=0.5;entryY=1;entryDx=0;entryDy=0;" edge="1" parent="1" source="zFXgyLeu_rbnk6_fEp6p-24" target="zFXgyLeu_rbnk6_fEp6p-23">
          <mxGeometry relative="1" as="geometry" />
        </mxCell>
        <mxCell id="zFXgyLeu_rbnk6_fEp6p-24" value="&lt;div&gt;&lt;span style=&quot;background-color: transparent; color: light-dark(rgb(0, 0, 0), rgb(255, 255, 255));&quot;&gt;$$\dot{q}_{\text{des}}=J^+\dot{x}$$&lt;/span&gt;&lt;/div&gt;" style="rounded=1;whiteSpace=wrap;html=1;" vertex="1" parent="1">
          <mxGeometry x="399.63" y="447.5" width="98.25" height="65" as="geometry" />
        </mxCell>
        <mxCell id="zFXgyLeu_rbnk6_fEp6p-38" value="" style="edgeStyle=orthogonalEdgeStyle;rounded=0;orthogonalLoop=1;jettySize=auto;html=1;entryX=0;entryY=0.5;entryDx=0;entryDy=0;exitX=0;exitY=0.75;exitDx=0;exitDy=0;" edge="1" parent="1" source="zFXgyLeu_rbnk6_fEp6p-25" target="zFXgyLeu_rbnk6_fEp6p-27">
          <mxGeometry relative="1" as="geometry" />
        </mxCell>
        <mxCell id="zFXgyLeu_rbnk6_fEp6p-25" value="Admittance&lt;br&gt;Dynamics Solver&lt;br&gt;$$\ddot{x}=M^{-1}(F-B\dot{x}_\text{err}-Kx_\text{err})$$" style="rounded=1;whiteSpace=wrap;html=1;fontStyle=1" vertex="1" parent="1">
          <mxGeometry x="160" y="350" width="212.5" height="80" as="geometry" />
        </mxCell>
        <mxCell id="zFXgyLeu_rbnk6_fEp6p-26" value="&lt;span style=&quot;color: rgb(0, 0, 0); font-family: Helvetica; font-size: 12px; font-style: normal; font-variant-ligatures: normal; font-variant-caps: normal; font-weight: 400; letter-spacing: normal; orphans: 2; text-align: center; text-indent: 0px; text-transform: none; widows: 2; word-spacing: 0px; -webkit-text-stroke-width: 0px; white-space: normal; background-color: rgb(251, 251, 251); text-decoration-thickness: initial; text-decoration-style: initial; text-decoration-color: initial; float: none; display: inline !important;&quot;&gt;$$a_{\text{sim}}$$&lt;/span&gt;" style="text;whiteSpace=wrap;html=1;" vertex="1" parent="1">
          <mxGeometry x="218" y="52" width="75" height="40" as="geometry" />
        </mxCell>
        <mxCell id="zFXgyLeu_rbnk6_fEp6p-37" value="" style="edgeStyle=orthogonalEdgeStyle;rounded=0;orthogonalLoop=1;jettySize=auto;html=1;" edge="1" parent="1" source="zFXgyLeu_rbnk6_fEp6p-27" target="zFXgyLeu_rbnk6_fEp6p-24">
          <mxGeometry relative="1" as="geometry" />
        </mxCell>
        <mxCell id="zFXgyLeu_rbnk6_fEp6p-74" style="edgeStyle=orthogonalEdgeStyle;rounded=0;orthogonalLoop=1;jettySize=auto;html=1;entryX=0.75;entryY=1;entryDx=0;entryDy=0;exitX=0.5;exitY=1;exitDx=0;exitDy=0;" edge="1" parent="1" source="zFXgyLeu_rbnk6_fEp6p-27" target="zFXgyLeu_rbnk6_fEp6p-57">
          <mxGeometry relative="1" as="geometry">
            <Array as="points">
              <mxPoint x="310" y="530" />
              <mxPoint x="550" y="530" />
              <mxPoint x="550" y="100" />
              <mxPoint x="373" y="100" />
            </Array>
          </mxGeometry>
        </mxCell>
        <mxCell id="zFXgyLeu_rbnk6_fEp6p-27" value="Dynamics Update&lt;br&gt;$$\dot{x}\leftarrow\dot{x}+\ddot{x}\cdot dt$$" style="rounded=1;whiteSpace=wrap;html=1;" vertex="1" parent="1">
          <mxGeometry x="240" y="450" width="140" height="60" as="geometry" />
        </mxCell>
        <mxCell id="zFXgyLeu_rbnk6_fEp6p-30" value="" style="edgeStyle=orthogonalEdgeStyle;rounded=0;orthogonalLoop=1;jettySize=auto;html=1;entryX=1;entryY=0.5;entryDx=0;entryDy=0;" edge="1" parent="1" source="zFXgyLeu_rbnk6_fEp6p-29" target="zFXgyLeu_rbnk6_fEp6p-23">
          <mxGeometry relative="1" as="geometry">
            <mxPoint x="470" y="540" as="targetPoint" />
            <Array as="points">
              <mxPoint x="560" y="40" />
              <mxPoint x="560" y="308" />
            </Array>
          </mxGeometry>
        </mxCell>
        <mxCell id="zFXgyLeu_rbnk6_fEp6p-29" value="Inverse Kinematics" style="rounded=1;whiteSpace=wrap;html=1;fillColor=#d5e8d4;strokeColor=#82b366;fontStyle=1" vertex="1" parent="1">
          <mxGeometry x="442.5" y="15" width="105" height="50" as="geometry" />
        </mxCell>
        <mxCell id="zFXgyLeu_rbnk6_fEp6p-36" value="$$q_\text{des}$$" style="text;html=1;align=center;verticalAlign=middle;resizable=0;points=[];autosize=1;strokeColor=none;fillColor=none;" vertex="1" parent="1">
          <mxGeometry x="480" y="59" width="130" height="30" as="geometry" />
        </mxCell>
        <mxCell id="zFXgyLeu_rbnk6_fEp6p-40" value="" style="edgeStyle=orthogonalEdgeStyle;rounded=0;orthogonalLoop=1;jettySize=auto;html=1;entryX=0;entryY=0.25;entryDx=0;entryDy=0;exitX=0.5;exitY=1;exitDx=0;exitDy=0;" edge="1" parent="1" source="zFXgyLeu_rbnk6_fEp6p-39" target="zFXgyLeu_rbnk6_fEp6p-25">
          <mxGeometry relative="1" as="geometry" />
        </mxCell>
        <mxCell id="zFXgyLeu_rbnk6_fEp6p-41" value="" style="edgeStyle=orthogonalEdgeStyle;rounded=0;orthogonalLoop=1;jettySize=auto;html=1;entryX=0.5;entryY=0;entryDx=0;entryDy=0;exitX=0.5;exitY=1;exitDx=0;exitDy=0;" edge="1" parent="1" source="zFXgyLeu_rbnk6_fEp6p-6" target="zFXgyLeu_rbnk6_fEp6p-39">
          <mxGeometry relative="1" as="geometry">
            <Array as="points">
              <mxPoint x="105" y="70" />
            </Array>
          </mxGeometry>
        </mxCell>
        <mxCell id="zFXgyLeu_rbnk6_fEp6p-67" value="" style="edgeStyle=orthogonalEdgeStyle;rounded=0;orthogonalLoop=1;jettySize=auto;html=1;entryX=0.25;entryY=0;entryDx=0;entryDy=0;" edge="1" parent="1" source="zFXgyLeu_rbnk6_fEp6p-39" target="zFXgyLeu_rbnk6_fEp6p-51">
          <mxGeometry relative="1" as="geometry" />
        </mxCell>
        <mxCell id="zFXgyLeu_rbnk6_fEp6p-39" value="Trajectory Errors&lt;br&gt;$$x_\text{err}=x_\text{des}-x$$ $$\dot{x}_\text{err}=\dot{x}_\text{des}-\dot{x}$$" style="rounded=1;whiteSpace=wrap;html=1;" vertex="1" parent="1">
          <mxGeometry x="40" y="190" width="130" height="90" as="geometry" />
        </mxCell>
        <mxCell id="zFXgyLeu_rbnk6_fEp6p-49" style="edgeStyle=orthogonalEdgeStyle;rounded=0;orthogonalLoop=1;jettySize=auto;html=1;entryX=0.75;entryY=0;entryDx=0;entryDy=0;exitX=0.75;exitY=1;exitDx=0;exitDy=0;" edge="1" parent="1" source="zFXgyLeu_rbnk6_fEp6p-48" target="zFXgyLeu_rbnk6_fEp6p-25">
          <mxGeometry relative="1" as="geometry" />
        </mxCell>
        <mxCell id="zFXgyLeu_rbnk6_fEp6p-52" style="edgeStyle=orthogonalEdgeStyle;rounded=0;orthogonalLoop=1;jettySize=auto;html=1;entryX=0.5;entryY=0;entryDx=0;entryDy=0;exitX=0.5;exitY=1;exitDx=0;exitDy=0;" edge="1" parent="1" source="zFXgyLeu_rbnk6_fEp6p-48" target="zFXgyLeu_rbnk6_fEp6p-51">
          <mxGeometry relative="1" as="geometry" />
        </mxCell>
        <mxCell id="zFXgyLeu_rbnk6_fEp6p-48" value="Stiffness Adaptation&lt;br&gt;$$K=f_\text{PID}(a_\text{des}-a_\text{sim})$$" style="rounded=1;whiteSpace=wrap;html=1;fontStyle=1" vertex="1" parent="1">
          <mxGeometry x="202.03000000000003" y="160" width="155.94" height="60" as="geometry" />
        </mxCell>
        <mxCell id="zFXgyLeu_rbnk6_fEp6p-53" style="edgeStyle=orthogonalEdgeStyle;rounded=0;orthogonalLoop=1;jettySize=auto;html=1;entryX=0.25;entryY=0;entryDx=0;entryDy=0;exitX=0.25;exitY=1;exitDx=0;exitDy=0;" edge="1" parent="1" source="zFXgyLeu_rbnk6_fEp6p-51" target="zFXgyLeu_rbnk6_fEp6p-25">
          <mxGeometry relative="1" as="geometry" />
        </mxCell>
        <mxCell id="zFXgyLeu_rbnk6_fEp6p-51" value="Force on Patient&lt;br&gt;$$F=-Kx_\text{err}$$" style="rounded=1;whiteSpace=wrap;html=1;" vertex="1" parent="1">
          <mxGeometry x="180" y="260" width="130" height="60" as="geometry" />
        </mxCell>
        <mxCell id="zFXgyLeu_rbnk6_fEp6p-55" value="$$\tau$$" style="text;html=1;align=center;verticalAlign=middle;resizable=0;points=[];autosize=1;strokeColor=none;fillColor=none;" vertex="1" parent="1">
          <mxGeometry x="316.63" y="64" width="80" height="30" as="geometry" />
        </mxCell>
        <mxCell id="zFXgyLeu_rbnk6_fEp6p-59" value="" style="edgeStyle=orthogonalEdgeStyle;rounded=0;orthogonalLoop=1;jettySize=auto;html=1;entryX=1;entryY=0.25;entryDx=0;entryDy=0;exitX=1;exitY=0.5;exitDx=0;exitDy=0;" edge="1" parent="1" source="zFXgyLeu_rbnk6_fEp6p-57" target="zFXgyLeu_rbnk6_fEp6p-23">
          <mxGeometry relative="1" as="geometry">
            <mxPoint x="710" y="280" as="targetPoint" />
            <Array as="points">
              <mxPoint x="430" y="40" />
              <mxPoint x="430" y="90" />
              <mxPoint x="540" y="90" />
              <mxPoint x="540" y="284" />
            </Array>
          </mxGeometry>
        </mxCell>
        <mxCell id="zFXgyLeu_rbnk6_fEp6p-61" value="" style="edgeStyle=orthogonalEdgeStyle;rounded=0;orthogonalLoop=1;jettySize=auto;html=1;entryX=0.75;entryY=0;entryDx=0;entryDy=0;exitX=0.25;exitY=1;exitDx=0;exitDy=0;" edge="1" parent="1" source="zFXgyLeu_rbnk6_fEp6p-57" target="zFXgyLeu_rbnk6_fEp6p-39">
          <mxGeometry relative="1" as="geometry">
            <mxPoint x="660" y="60" as="sourcePoint" />
            <mxPoint x="335" y="615" as="targetPoint" />
            <Array as="points">
              <mxPoint x="321" y="110" />
              <mxPoint x="138" y="110" />
            </Array>
          </mxGeometry>
        </mxCell>
        <mxCell id="zFXgyLeu_rbnk6_fEp6p-57" value="Physics" style="rounded=1;whiteSpace=wrap;html=1;fillColor=#d5e8d4;strokeColor=#82b366;fontStyle=1" vertex="1" parent="1">
          <mxGeometry x="294.63" y="15" width="105" height="50" as="geometry" />
        </mxCell>
        <mxCell id="zFXgyLeu_rbnk6_fEp6p-70" value="$$x,\dot{x}$$" style="text;html=1;align=center;verticalAlign=middle;resizable=0;points=[];autosize=1;strokeColor=none;fillColor=none;" vertex="1" parent="1">
          <mxGeometry x="247.97" y="64" width="110" height="30" as="geometry" />
        </mxCell>
        <mxCell id="zFXgyLeu_rbnk6_fEp6p-76" value="$$\dot{x}$$" style="text;html=1;align=center;verticalAlign=middle;resizable=0;points=[];autosize=1;strokeColor=none;fillColor=none;" vertex="1" parent="1">
          <mxGeometry x="338" y="64" width="90" height="30" as="geometry" />
        </mxCell>
        <mxCell id="zFXgyLeu_rbnk6_fEp6p-80" value="&lt;span style=&quot;color: rgb(0, 0, 0); font-family: Helvetica; font-size: 12px; font-style: normal; font-variant-ligatures: normal; font-variant-caps: normal; font-weight: 400; letter-spacing: normal; orphans: 2; text-align: center; text-indent: 0px; text-transform: none; widows: 2; word-spacing: 0px; -webkit-text-stroke-width: 0px; white-space: nowrap; background-color: rgb(251, 251, 251); text-decoration-thickness: initial; text-decoration-style: initial; text-decoration-color: initial; float: none; display: inline !important;&quot;&gt;$$q,\dot{q}$$&lt;/span&gt;" style="text;whiteSpace=wrap;html=1;" vertex="1" parent="1">
          <mxGeometry x="431.5" y="51" width="90" height="40" as="geometry" />
        </mxCell>
      </root>
    </mxGraphModel>
  </diagram>
</mxfile>
